<svg width="23" height="18" viewBox="0 0 23 18" fill="none" xmlns="http://www.w3.org/2000/svg">
<path d="M20.094 2.62815C20.094 2.62815 18.504 0.894683 14.8939 0.643799V1.19115C14.8939 1.19115 16.874 1.07269 19.325 3.55728C17.4749 2.18656 14.8356 1.32789 11.904 1.32789C8.97236 1.32789 6.33306 2.18643 4.48294 3.55728C6.93398 1.07269 8.91405 1.19115 8.91405 1.19115V0.643799C5.30394 0.894683 3.71397 2.62815 3.71397 2.62815C0.963083 6.27714 0.808105 14.2599 0.808105 14.2599C3.39933 17.4756 6.65509 17.0653 6.65509 17.0653L7.85102 15.2864C6.30877 14.8567 5.2074 13.8703 4.54545 13.1022C6.39224 14.4464 9.00504 15.2864 11.904 15.2864C14.803 15.2864 17.4158 14.4465 19.2625 13.1022C18.6006 13.8702 17.4992 14.8567 15.957 15.2864L17.1529 17.0653C17.1529 17.0653 20.4087 17.4759 22.9999 14.2599C23.0001 14.2597 22.845 6.27714 20.094 2.62815ZM8.44911 12.0019C7.40939 12.0019 6.56657 11.0797 6.56657 9.942C6.56657 8.80439 7.40939 7.88211 8.44911 7.88211C9.48883 7.88211 10.3317 8.80439 10.3317 9.942C10.3317 11.0796 9.48883 12.0019 8.44911 12.0019ZM15.3591 12.0019C14.3194 12.0019 13.4766 11.0797 13.4766 9.942C13.4766 8.80439 14.3194 7.88211 15.3591 7.88211C16.3988 7.88211 17.2417 8.80439 17.2417 9.942C17.2417 11.0796 16.399 12.0019 15.3591 12.0019Z" fill="white"/>
</svg>
