<svg width="22" height="20" viewBox="0 0 22 20" fill="none" xmlns="http://www.w3.org/2000/svg">
<path d="M15.8855 1.00395L13.4217 1C10.6536 1 8.86474 2.8353 8.86474 5.67593V7.83184H6.38742C6.17335 7.83184 6 8.00539 6 8.21946V11.3431C6 11.5572 6.17355 11.7306 6.38742 11.7306H8.86474V19.6126C8.86474 19.8266 9.03809 20 9.25216 20H12.4843C12.6984 20 12.8718 19.8265 12.8718 19.6126V11.7306H15.7683C15.9824 11.7306 16.1557 11.5572 16.1557 11.3431L16.1569 8.21946C16.1569 8.11667 16.116 8.01824 16.0435 7.9455C15.9709 7.87276 15.8721 7.83184 15.7693 7.83184H12.8718V6.00424C12.8718 5.12583 13.0811 4.6799 14.2254 4.6799L15.8851 4.67931C16.099 4.67931 16.2724 4.50576 16.2724 4.29189V1.39137C16.2724 1.1777 16.0992 1.00435 15.8855 1.00395Z" fill="white"/>
</svg>
