<svg width="23" height="17" viewBox="0 0 23 17" fill="none" xmlns="http://www.w3.org/2000/svg">
<path d="M23 2.4288H21.7309C21.4004 2.4288 20.5357 2.78262 20.5357 3.08382V14.022C20.5357 14.3239 21.4004 14.5715 21.7309 14.5715H23V17H14.7857V14.5715H16.4289V3.23791H16.143L12.1888 17H9.12727L5.22422 3.23791H4.92861V14.5714H6.57116V17H0V14.5714H0.911377C1.26917 14.5714 1.6426 14.3239 1.6426 14.0219V3.08382C1.6426 2.78257 1.26922 2.4288 0.911377 2.4288H0V0H8.51603L11.2966 9.71417H11.3714L14.1794 0H23V2.4288Z" fill="white"/>
</svg>
