<svg width="22" height="20" viewBox="0 0 22 20" fill="none" xmlns="http://www.w3.org/2000/svg">
<path d="M0.386697 9.89945L5.4313 11.7823L7.38388 18.0617C7.50881 18.4639 8.0006 18.6125 8.32703 18.3456L11.139 16.0533C11.4337 15.8131 11.8536 15.8012 12.1616 16.0248L17.2334 19.7069C17.5826 19.9608 18.0773 19.7694 18.1648 19.3475L21.8802 1.47611C21.9758 1.01519 21.5229 0.630678 21.084 0.800422L0.380786 8.78707C-0.130126 8.98411 -0.125675 9.70745 0.386697 9.89945ZM7.0692 10.78L16.9282 4.70782C17.1054 4.59901 17.2877 4.83859 17.1356 4.97973L8.999 12.543C8.71301 12.8093 8.52852 13.1655 8.47627 13.5522L8.1991 15.6062C8.16239 15.8805 7.77715 15.9077 7.70147 15.6423L6.6355 11.8968C6.51341 11.4695 6.69132 11.0132 7.0692 10.78Z" fill="white"/>
</svg>
