<svg width="24" height="20" viewBox="0 0 24 20" fill="none" xmlns="http://www.w3.org/2000/svg">
<path d="M8.66075 20C7.65686 20 6.62357 19.9187 5.58409 19.7558C3.75325 19.4685 1.89991 18.5108 1.37548 18.2241L0 17.472L1.48918 16.9823C3.11705 16.4471 4.1073 16.115 5.33311 15.595C4.10571 15.0006 3.15973 13.9313 2.70437 12.5491L2.35793 11.4974L2.64203 11.5408C2.37263 11.2693 2.15992 10.9937 1.99502 10.7431C1.4086 9.85237 1.09811 8.76399 1.16418 7.8313L1.22936 6.91332L1.77894 7.12621C1.5471 6.68838 1.37955 6.2208 1.28107 5.73072C1.04108 4.53555 1.24193 3.26581 1.84678 2.15547L2.32552 1.27663L2.96579 2.04566C4.99075 4.47816 7.55555 5.92112 10.5996 6.34354C10.4753 5.48648 10.5685 4.65935 10.8768 3.91795C11.2358 3.05469 11.8745 2.32267 12.7232 1.80089C13.6658 1.22154 14.809 0.940817 15.942 1.01042C17.144 1.08428 18.2354 1.53468 19.1022 2.31381C19.5255 2.20383 19.8374 2.0864 20.259 1.9277C20.5126 1.83224 20.8002 1.72384 21.1601 1.59986L22.4864 1.14291L21.6215 3.61295C21.6785 3.60817 21.7373 3.6041 21.7988 3.60144L23.215 3.53733L22.378 4.68131C22.33 4.74684 22.3177 4.76544 22.3007 4.79112C22.2333 4.89279 22.1493 5.01925 21.0004 6.55342C20.7127 6.93758 20.5691 7.43793 20.5958 7.96255C20.6977 9.95616 20.4531 11.7599 19.8684 13.3235C19.3155 14.8027 18.4586 16.0719 17.3219 17.0958C15.9152 18.3626 14.1216 19.2299 11.9905 19.6734C10.9452 19.8909 9.82263 20 8.66075 20V20Z" fill="white"/>
</svg>
