<svg width="22" height="20" viewBox="0 0 22 20" fill="none" xmlns="http://www.w3.org/2000/svg">
<path d="M8.18486 0C3.67272 0 0.015625 3.04848 0.015625 6.80769C0.015625 8.97525 1.23829 10.8977 3.13491 12.1422L2.05793 14.2961L4.99205 13.0394C5.62108 13.2627 6.27462 13.4465 6.97309 13.5323C6.87778 13.1171 6.82332 12.6909 6.82332 12.2538C6.82332 8.50008 10.4872 5.44615 14.9926 5.44615C15.4051 5.44615 15.8081 5.48019 16.2057 5.5292C15.4868 2.38133 12.1714 0 8.18486 0ZM5.46178 5.10576C4.8981 5.10576 4.44063 4.64829 4.44063 4.08461C4.44063 3.52094 4.8981 3.06346 5.46178 3.06346C6.02546 3.06346 6.48294 3.52094 6.48294 4.08461C6.48294 4.64829 6.02546 5.10576 5.46178 5.10576ZM10.9079 5.10576C10.3443 5.10576 9.88678 4.64829 9.88678 4.08461C9.88678 3.52094 10.3443 3.06346 10.9079 3.06346C11.4716 3.06346 11.9291 3.52094 11.9291 4.08461C11.9291 4.64829 11.4716 5.10576 10.9079 5.10576Z" fill="white"/>
<path d="M21.8003 12.2538C21.8003 9.24614 18.7518 6.80762 14.9926 6.80762C11.2334 6.80762 8.18494 9.24614 8.18494 12.2538C8.18494 15.2615 11.2334 17.7 14.9926 17.7C15.6108 17.7 16.1989 17.6128 16.7694 17.4889L20.4388 19.0615L19.1698 16.525C20.7601 15.5283 21.8003 13.9952 21.8003 12.2538ZM12.9503 11.9134C12.3866 11.9134 11.9292 11.4559 11.9292 10.8923C11.9292 10.3286 12.3866 9.87109 12.9503 9.87109C13.514 9.87109 13.9715 10.3286 13.9715 10.8923C13.9715 11.4559 13.514 11.9134 12.9503 11.9134ZM17.0349 11.9134C16.4712 11.9134 16.0138 11.4559 16.0138 10.8923C16.0138 10.3286 16.4712 9.87109 17.0349 9.87109C17.5986 9.87109 18.0561 10.3286 18.0561 10.8923C18.0561 11.4559 17.5986 11.9134 17.0349 11.9134Z" fill="white"/>
</svg>
