<svg width="100" height="32" viewBox="0 0 100 32" fill="none" xmlns="http://www.w3.org/2000/svg">
<path d="M46.5416 21.7563H39.5701V10.2402H46.4505C49.0317 10.2402 50.5281 10.9726 51.2922 12.279C51.8346 13.1143 52.0246 14.1713 52.0246 15.8458C52.0246 17.6194 51.8346 18.708 51.3199 19.5592C50.5756 20.9645 49.0911 21.7563 46.5416 21.7563ZM49.7839 15.9052C49.768 14.8047 49.6374 13.9377 49.2851 13.4547C48.7427 12.6036 47.8045 12.2077 46.1615 12.2077H41.8147V19.7769H46.0705C47.8005 19.7769 48.7863 19.381 49.3128 18.5299C49.681 18.0034 49.7839 17.0612 49.7839 15.9052Z" fill="white"/>
<path d="M54.9778 21.7563H52.6025L58.6477 10.2402H61.3199L67.175 21.7563H64.7245L63.3745 19.0406H56.3714L54.9778 21.7563ZM60.4094 13.1618L59.9264 12.1048L59.4434 13.1776L56.3714 19.0406H63.3745L60.4094 13.1618Z" fill="white"/>
<path d="M82.0243 21.7563H79.265L76.3869 12.8966L73.4653 21.7602H70.6941L66.2642 10.2402H68.7147L72.147 19.4404L75.0686 10.2402H77.725L80.6743 19.4404L84.1067 10.2402H86.3355L82.0243 21.7563Z" fill="white"/>
<path d="M97.4323 21.7563L90.156 13.2924V21.7602H87.9707V10.2402H90.4964L97.6857 18.6051V10.2402H99.8274V21.7563H97.4323Z" fill="white"/>
<path d="M15.936 32C24.7372 32 31.872 24.8366 31.872 16C31.872 7.16344 24.7372 0 15.936 0C7.13479 0 0 7.16344 0 16C0 24.8366 7.13479 32 15.936 32Z" fill="url(#paint0_linear)"/>
<path d="M14.3372 0.83793C14.3322 0.381089 14.7132 0.0321179 15.1697 0.0134265C20.2022 -0.192639 25.2528 1.9767 28.5438 6.28381C33.9098 13.3059 32.567 23.3488 25.5449 28.714C22.1788 31.2859 18.1196 32.3164 14.212 31.9164C13.8396 31.8783 13.5263 31.6217 13.4184 31.2633C13.0108 29.9089 12.7871 28.3968 12.9634 26.8172C13.5774 21.3127 17.4275 19.7656 19.0633 14.3371C20.6104 9.20817 14.3853 5.22817 14.3372 0.83793Z" fill="url(#paint1_linear)"/>
<path d="M14.3951 0.0639895C19.6792 -0.409781 25.0841 1.75554 28.544 6.28381C33.91 13.3059 32.5673 23.3488 25.5452 28.714C22.005 31.419 17.698 32.4189 13.6072 31.8429C15.9541 31.3413 25.9286 26.2902 23.4829 15.8597C22.1891 10.34 13.6317 4.76707 14.3951 0.0639895Z" fill="url(#paint2_linear)"/>
<path d="M19.0729 0.331202C22.7127 1.08197 26.1094 3.09782 28.5441 6.28331C33.9101 13.3054 32.5673 23.3483 25.5452 28.7135C22.005 31.4185 32.6467 23.6338 27.1768 14.4227C25.2953 11.2541 23.2093 10.0321 20.8759 6.0764C19.0763 3.02603 18.2605 0.163989 19.0729 0.331202Z" fill="url(#paint3_linear)"/>
<defs>
<linearGradient id="paint0_linear" x1="15.936" y1="0" x2="1.3441" y2="25.5679" gradientUnits="userSpaceOnUse">
<stop stop-color="#20175A"/>
<stop offset="1" stop-color="#3D347C"/>
</linearGradient>
<linearGradient id="paint1_linear" x1="22.3672" y1="0" x2="22.3672" y2="32" gradientUnits="userSpaceOnUse">
<stop stop-color="#F54D59"/>
<stop offset="1" stop-color="#6C4562"/>
</linearGradient>
<linearGradient id="paint2_linear" x1="22.7196" y1="0" x2="22.7196" y2="32" gradientUnits="userSpaceOnUse">
<stop stop-color="#FF755B"/>
<stop offset="1" stop-color="#EE4B5D"/>
</linearGradient>
<linearGradient id="paint3_linear" x1="25.2951" y1="0.324219" x2="25.2951" y2="29.2579" gradientUnits="userSpaceOnUse">
<stop stop-color="#FE927E"/>
<stop offset="1" stop-color="#EE4B5D"/>
</linearGradient>
</defs>
</svg>
