<svg width="30" height="22" viewBox="0 0 30 22" fill="none" xmlns="http://www.w3.org/2000/svg">
<path d="M28.8281 9.375H1.17188C0.524648 9.375 0 9.89965 0 10.5469C0 11.1941 0.524648 11.7188 1.17188 11.7188H28.8281C29.4754 11.7188 30 11.1941 30 10.5469C30 9.89965 29.4754 9.375 28.8281 9.375Z" fill="white"/>
<path d="M28.8281 0H1.17188C0.524648 0 0 0.524648 0 1.17188C0 1.8191 0.524648 2.34375 1.17188 2.34375H28.8281C29.4754 2.34375 30 1.8191 30 1.17188C30 0.524648 29.4754 0 28.8281 0Z" fill="white"/>
<path d="M28.8281 18.75H1.17188C0.524648 18.75 0 19.2746 0 19.9219C0 20.5691 0.524648 21.0938 1.17188 21.0938H28.8281C29.4754 21.0938 30 20.5691 30 19.9219C30 19.2746 29.4754 18.75 28.8281 18.75Z" fill="white"/>
</svg>
