<svg width="15" height="15" viewBox="0 0 15 15" fill="none" xmlns="http://www.w3.org/2000/svg">
<g opacity="0.4">
<path d="M10.7603 9.52847H10.112L9.88217 9.30687C10.867 8.15786 11.3759 6.59028 11.0968 4.92421C10.7111 2.6426 8.80702 0.820596 6.509 0.54155C3.03734 0.114774 0.115567 3.03655 0.542343 6.50821C0.821389 8.80623 2.64339 10.7103 4.925 11.0961C6.59107 11.3751 8.15865 10.8662 9.30767 9.88138L9.52926 10.1112V10.7596L13.0173 14.2476C13.3538 14.5841 13.9037 14.5841 14.2402 14.2476C14.5767 13.9111 14.5767 13.3612 14.2402 13.0247L10.7603 9.52847ZM5.83601 9.52847C3.79241 9.52847 2.14275 7.87882 2.14275 5.83521C2.14275 3.79161 3.79241 2.14196 5.83601 2.14196C7.87961 2.14196 9.52926 3.79161 9.52926 5.83521C9.52926 7.87882 7.87961 9.52847 5.83601 9.52847Z" fill="white"/>
</g>
</svg>
