<svg xmlns="http://www.w3.org/2000/svg" viewBox="0 0 64 64" width="64px" height="64px"><radialGradient id="QHyWB30mR8aAdUwtDM__Na" cx="36.833" cy="35.917" r="26" gradientUnits="userSpaceOnUse" spreadMethod="reflect"><stop offset="0" stop-color="#f4e9c3"/><stop offset=".219" stop-color="#f8eecd"/><stop offset=".644" stop-color="#fdf4dc"/><stop offset="1" stop-color="#fff6e1"/></radialGradient><path fill="url(#QHyWB30mR8aAdUwtDM__Na)" d="M10,8L10,8c2.209,0,4-1.791,4-4v0c0-2.209-1.791-4-4-4h0C7.791,0,6,1.791,6,4v0 C6,6.209,7.791,8,10,8z"/><radialGradient id="QHyWB30mR8aAdUwtDM__Nb" cx="31.417" cy="29.917" r="28.77" gradientUnits="userSpaceOnUse" spreadMethod="reflect"><stop offset="0" stop-color="#f4e9c3"/><stop offset=".219" stop-color="#f8eecd"/><stop offset=".644" stop-color="#fdf4dc"/><stop offset="1" stop-color="#fff6e1"/></radialGradient><path fill="url(#QHyWB30mR8aAdUwtDM__Nb)" d="M7.5,64L7.5,64c1.933,0,3.5-1.567,3.5-3.5v0c0-1.933-1.567-3.5-3.5-3.5h0 C5.567,57,4,58.567,4,60.5v0C4,62.433,5.567,64,7.5,64z"/><radialGradient id="QHyWB30mR8aAdUwtDM__Nc" cx="32" cy="32" r="32" gradientUnits="userSpaceOnUse" spreadMethod="reflect"><stop offset="0" stop-color="#f4e9c3"/><stop offset=".219" stop-color="#f8eecd"/><stop offset=".644" stop-color="#fdf4dc"/><stop offset="1" stop-color="#fff6e1"/></radialGradient><path fill="url(#QHyWB30mR8aAdUwtDM__Nc)" d="M20,30H4c-2.209,0-4,1.791-4,4v0c0,2.209,1.791,4,4,4h0c1.657,0,3,1.343,3,3v0 c0,1.657-1.343,3-3,3h0c-2.209,0-4,1.791-4,4v0c0,2.209,1.791,4,4,4h13.5c1.381,0,2.5,1.119,2.499,2.5l0,0.003 c0,1.379-1.119,2.497-2.498,2.497l-0.104,0c-1.876,0-3.396,1.52-3.397,3.395c0,0.035,0,0.07,0,0.105c0,1.933,1.564,3.5,3.497,3.5 c7.061,0,22.946,0,30.006,0C49.436,64,51,62.433,51,60.5v0c0-1.933-1.567-3.5-3.5-3.5H47c-1.105,0-2-0.895-2-2v0 c0-1.105,0.895-2,2-2h13c2.209,0,4-1.791,4-4v0c0-2.209-1.791-4-4-4h-7.5c-1.381,0-2.5-1.119-2.5-2.5v0c0-1.381,1.119-2.5,2.5-2.5 H53c2.209,0,4-1.791,4-4v0c0-2.209-1.791-4-4-4h-1.5c-1.933,0-3.5-1.567-3.5-3.5v0c0-1.933,1.567-3.5,3.5-3.5h6 c2.485,0,4.5-2.015,4.5-4.5v0c0-2.485-2.015-4.5-4.5-4.5H49c-2.209,0-4-1.791-4-4v0c0-2.209,1.791-4,4-4h2c2.209,0,4-1.791,4-4v0 c0-2.209-1.791-4-4-4L20,0c-2.209,0-4,1.791-4,4v0c0,2.209,1.791,4,4,4h2c1.657,0,3,1.343,3,3v0c0,1.657-1.343,3-3,3h-7.5 c-1.933,0-3.5,1.567-3.5,3.5v0c0,1.933,1.567,3.5,3.5,3.5H20V30z"/><g><linearGradient id="QHyWB30mR8aAdUwtDM__Nd" x1="24.5" x2="24.5" y1="10" y2="48" gradientUnits="userSpaceOnUse" spreadMethod="reflect"><stop offset="0" stop-color="#42d778"/><stop offset=".428" stop-color="#3dca76"/><stop offset="1" stop-color="#34b171"/></linearGradient><path fill="url(#QHyWB30mR8aAdUwtDM__Nd)" d="M24.5,10C13.178,10,4,17.788,4,27.394c0,5.034,2.536,9.555,6.564,12.731l-1.483,5.19 c-0.21,0.736-0.005,1.527,0.536,2.068h0c0.665,0.665,1.69,0.809,2.513,0.352l6.589-3.66c1.835,0.457,3.772,0.713,5.782,0.713 C35.822,44.788,45,37,45,27.394S35.822,10,24.5,10z"/><linearGradient id="QHyWB30mR8aAdUwtDM__Ne" x1="43.5" x2="43.5" y1="25" y2="63.237" gradientUnits="userSpaceOnUse" spreadMethod="reflect"><stop offset="0" stop-color="#c7c7c7"/><stop offset=".488" stop-color="#b3b3b3"/><stop offset="1" stop-color="#a3a3a3"/></linearGradient><path fill="url(#QHyWB30mR8aAdUwtDM__Ne)" d="M55.329,48.749C58.215,46.228,60,42.793,60,39c0-7.732-7.387-14-16.5-14S27,31.268,27,39 s7.387,14,16.5,14c1.086,0,2.144-0.095,3.172-0.265l7.199,3.999c0.822,0.457,1.847,0.313,2.513-0.352h0 c0.541-0.541,0.746-1.333,0.536-2.068L55.329,48.749z"/><linearGradient id="QHyWB30mR8aAdUwtDM__Nf" x1="34.397" x2="34.397" y1="44.759" y2="10.703" gradientUnits="userSpaceOnUse" spreadMethod="reflect"><stop offset="0" stop-color="#37ab6a"/><stop offset=".422" stop-color="#39b66f"/><stop offset="1" stop-color="#3ac074"/></linearGradient><path fill="url(#QHyWB30mR8aAdUwtDM__Nf)" d="M24,39c0,2.024,0.429,3.957,1.176,5.759c1.067-0.03,2.115-0.12,3.135-0.283 C27.468,42.794,27,40.943,27,39c0-7.732,7.387-14,16.5-14c0.437,0,0.865,0.027,1.293,0.055c-0.166-1.043-0.428-2.058-0.801-3.034 C43.827,22.018,43.666,22,43.5,22C32.748,22,24,29.626,24,39z"/><linearGradient id="QHyWB30mR8aAdUwtDM__Ng" x1="49.033" x2="48.995" y1="27.583" y2="37.214" gradientUnits="userSpaceOnUse" spreadMethod="reflect"><stop offset="0" stop-color="#a4a4a4"/><stop offset=".63" stop-color="#7f7f7f"/><stop offset="1" stop-color="#6f6f6f"/><stop offset="1" stop-color="#6f6f6f"/></linearGradient><path fill="url(#QHyWB30mR8aAdUwtDM__Ng)" d="M49 34A2 2 0 1 0 49 38A2 2 0 1 0 49 34Z"/><linearGradient id="QHyWB30mR8aAdUwtDM__Nh" x1="38.034" x2="37.995" y1="27.54" y2="37.17" gradientUnits="userSpaceOnUse" spreadMethod="reflect"><stop offset="0" stop-color="#a4a4a4"/><stop offset=".63" stop-color="#7f7f7f"/><stop offset="1" stop-color="#6f6f6f"/><stop offset="1" stop-color="#6f6f6f"/></linearGradient><path fill="url(#QHyWB30mR8aAdUwtDM__Nh)" d="M38 34A2 2 0 1 0 38 38A2 2 0 1 0 38 34Z"/><linearGradient id="QHyWB30mR8aAdUwtDM__Ni" x1="17.5" x2="17.5" y1="19" y2="26.14" gradientUnits="userSpaceOnUse" spreadMethod="reflect"><stop offset="0" stop-color="#606f7d"/><stop offset=".223" stop-color="#5c6a77"/><stop offset="1" stop-color="#505b67"/></linearGradient><path fill="url(#QHyWB30mR8aAdUwtDM__Ni)" d="M17.5 19A2.5 2.5 0 1 0 17.5 24A2.5 2.5 0 1 0 17.5 19Z"/><linearGradient id="QHyWB30mR8aAdUwtDM__Nj" x1="31.5" x2="31.5" y1="19" y2="26.747" gradientUnits="userSpaceOnUse" spreadMethod="reflect"><stop offset="0" stop-color="#606f7d"/><stop offset=".223" stop-color="#5c6a77"/><stop offset="1" stop-color="#505b67"/></linearGradient><path fill="url(#QHyWB30mR8aAdUwtDM__Nj)" d="M31.5 19A2.5 2.5 0 1 0 31.5 24A2.5 2.5 0 1 0 31.5 19Z"/></g></svg>